<?xml version="1.0" encoding="iso-8859-1"?>
<!-- Generator: Adobe Illustrator 19.0.0, SVG Export Plug-In . SVG Version: 6.00 Build 0)  -->
<svg version="1.1" id="Capa_1" xmlns="http://www.w3.org/2000/svg" xmlns:xlink="http://www.w3.org/1999/xlink" x="0px" y="0px"
	 viewBox="0 0 399.385 399.385" style="enable-background:new 0 0 399.385 399.385;" xml:space="preserve">
<g id="XMLID_6_">
	<path id="XMLID_338_" style="fill:#91DC5A;" d="M199.674,219.703l0.001-0.001L84.329,257.145l-8.088,132.451
		c0,0,122.311-168.344,123.421-169.873L199.674,219.703z"/>
	<polygon id="XMLID_340_" style="fill:#933EC5;" points="399.385,154.832 270.986,121.612 199.676,219.703 	"/>
	<polygon id="XMLID_341_" style="fill:#64C37D;" points="199.676,219.704 199.676,219.703 199.676,219.703 	"/>
	<path id="XMLID_348_" style="fill:#64C37D;" d="M199.675,219.704c0,0-0.008,0.012-0.013,0.018
		c-1.111,1.529-123.421,169.873-123.421,169.873l123.418-48.508l-0.018-0.007L199.675,219.704z"/>
	<polygon id="XMLID_350_" style="fill:#FF9811;" points="0,154.823 84.329,257.145 199.675,219.702 	"/>
	<polygon id="XMLID_351_" style="fill:#FF9811;" points="199.674,219.703 199.675,219.703 199.675,219.703 199.676,219.703 
		199.675,219.702 	"/>
	<polygon id="XMLID_352_" style="fill:#00D7DF;" points="315.057,257.21 199.676,219.703 323.096,389.683 315.058,257.251 	"/>
	<polygon id="XMLID_439_" style="fill:#EA348B;" points="199.676,219.702 199.676,9.703 128.387,121.581 128.422,121.571 	"/>
	<polygon id="XMLID_334_" style="fill:#F7AED1;" points="199.676,219.703 270.986,121.612 199.676,9.703 199.676,219.702 	"/>
	<polygon id="XMLID_440_" style="fill:#FFDA44;" points="128.422,121.571 128.387,121.581 0,154.823 199.676,219.702 	"/>
	<polygon id="XMLID_441_" style="fill:#99EFF2;" points="199.676,219.703 199.675,219.703 199.675,219.703 199.675,219.704 
		199.641,341.08 199.659,341.087 323.096,389.683 199.676,219.704 	"/>
	<polygon id="XMLID_443_" style="fill:#7C84E8;" points="315.057,257.21 399.385,154.832 199.676,219.703 	"/>
</g>
<g>
</g>
<g>
</g>
<g>
</g>
<g>
</g>
<g>
</g>
<g>
</g>
<g>
</g>
<g>
</g>
<g>
</g>
<g>
</g>
<g>
</g>
<g>
</g>
<g>
</g>
<g>
</g>
<g>
</g>
</svg>
