<?xml version="1.0" encoding="iso-8859-1"?>
<!-- Generator: Adobe Illustrator 19.0.0, SVG Export Plug-In . SVG Version: 6.00 Build 0)  -->
<svg xmlns="http://www.w3.org/2000/svg" xmlns:xlink="http://www.w3.org/1999/xlink" version="1.1" id="Capa_1" x="0px" y="0px" viewBox="0 0 444.422 444.422" style="enable-background:new 0 0 444.422 444.422;" xml:space="preserve" width="512px" height="512px">

        <g>
            <path d="M219.493,400.354c-35.786,0-69.134-10.268-97.586-27.762     c25.605,0.259-19.047-38.957,11.713-44.975c32.27-6.342,45.859-43.249,35.527-42.689c-10.311,0.539-29.94-5.328-43.746-22.671     c-13.827-17.472-25.928-13.482-40.186-10.742c-12.468,2.459-27.826,38.525-31.644,47.995     c-9.707-18.594-16.286-39.022-19.263-60.614c15.833-8.283,41.675-22.218,51.015-29.919c13.762-11.411-4.595-16.027-6.86-22.908     c-2.243-6.881,0-22.908,0-38.827c0-16.07,32.054-16.07,43.422-32.054c8.175-11.411-6.795-36.584-16.135-50.217     c31.558-24.289,70.946-38.892,113.743-38.892c11.346,0,22.412,1.186,33.219,3.128c3.171,19.716,9.772,46.83,22.52,53.905     c20.643,11.433,45.622,36.606,54.854,41.135c9.189,4.573,20.557,43.53,18.314,59.535c-1.618,11.303-15.639,23.749-21.377,35.721     l95.343,59.406c6.73-20.708,10.44-42.732,10.44-65.661C432.806,95.645,337.075,0,219.515,0C101.889,0,6.223,95.645,6.223,213.249     c0,117.625,95.666,213.313,213.292,213.313c4.465,0,8.822-0.41,13.223-0.669l-4.983-25.971     C224.994,400.052,222.276,400.354,219.493,400.354z M404.333,240.859c-4.034-16.006-11.842-31.45-28.452-43.379     c-11.368-8.024-20.643-43.444-13.741-54.919c4.12-6.838,14.841-12.856,22.736-16.609c13.827,26.079,21.722,55.76,21.722,87.297     C406.598,222.654,405.67,231.821,404.333,240.859z" fill="#6495ed"/>
            <path d="M349.133,334.455l89.066-17.753L215.071,177.679l-5.263,3.667l49.677,258.094l48.491-76.727     l47.024,68.509c8.93,12.899,25.324,17.062,36.692,9.275c11.303-7.809,13.331-24.634,4.465-37.555L349.133,334.455z" fill="#00ced1"/>
        </g>

</svg>
